<?xml version="1.0" encoding="UTF-8"?>
<svg width="100pt" height="100pt" version="1.1" viewBox="0 0 100 100" xmlns="http://www.w3.org/2000/svg">
 <g fill-rule="evenodd">
  <path d="m53.004 52.027c2.6914 2.9297 9.8594 8.7969 17.945-0.53125 0 0 14.07-6.6211 3.4141-15.508 0 0 2.8477-8.375-4.293-7.1836 0 0-0.035156-21.164-20.191-13.297 0 0-7.2656-7.5156-14.891 1.207 0 0-10.57-1.0703-11.07 10.488 0 0-4.9609 7.9492-0.20312 16 0 0-2.4453 11.035 8.3711 8.9258 0 0 4.6562 2.4648 12.867-2.3047 5.3477-3.1055 5.7539 2.3711 8.0508 2.207z"/>
  <path d="m55.082 61.758v-6.4258c-0.9375-0.66016-1.8008-1.418-2.582-2.2305-0.10547-0.015624-0.20703-0.042968-0.30859-0.070312-1.3516-0.40625-1.9766-1.7383-3.0039-2.5586-0.38281-0.30469-0.77344-0.48828-1.2656-0.5-0.8125-0.023437-1.7266 0.40625-2.4102 0.80469-1.1484 0.66797-2.375 1.2812-3.6484 1.7812v9.2031c0.17578 8.7344-2.6445 23.078-3.4531 25.742h20.133c-0.80859-2.6602-3.6289-17.004-3.4531-25.742z"/>
 </g>
</svg>
