<?xml version="1.0" encoding="UTF-8"?>
<svg width="128pt" height="128pt" version="1.1" viewBox="0 0 128 128" xmlns="http://www.w3.org/2000/svg">
 <g fill-rule="evenodd">
  <path d="m33.176 77.25c2.207 5.8359 12.145 7.6602 17.449 2.793 1.2031 9.6133 16.406 11.16 20.156 2.3633 6.293 6.1953 18.863 4.0117 23.98-4.4648 11.09 1.3281 18.73-6.3711 15.391-16.039 7.0898-6.0742 7.168-17.996-0.9375-23.188 4.3789-9.0469-4.3867-20.066-13.371-17.059-0.72266-11.395-8.3984-16.48-19.484-14.008-5-9.8281-17.031-8.8125-22.301-0.11328-11.199-3.7109-22.527 3.0312-22.438 14.266-8.9609-1.6523-15.656 8.8125-9.9336 16.246-8.582 2.4531-11.336 13.156-5.3008 19.492-8.0273 13.262 3.5977 24.848 16.789 19.711z"/>
  <path d="m60.059 38.68 6.1992 2.8281 1.5703 17.77 7.7891-6.6484-1.1719-16.301 1.0469-0.074219 2.582 14.141 9.2383-8.0078 3.5898-0.14844-1.9844 2.1367 14.703-0.9375-1.2695 1.3125-15.383 1.7227-10.25 11.039 17.551 7.0195 0.59766 2.2461-21.27-5.9023-4.9766 5.3594 6.6172 62.156h-18.324l2.2617-68.832-3.8281-5.5195-20.18-7.875-0.59766-1.8711 17.34 4.7969-11.578-16.691 2.8633-0.23438 6.9609 8.0195 0.27344-9.207 0.91016-0.16016 1.1875 12.246 6.875 8.3516z"/>
 </g>
</svg>
