<?xml version="1.0" encoding="UTF-8"?>
<svg width="100pt" height="100pt" version="1.1" viewBox="0 0 100 100" xmlns="http://www.w3.org/2000/svg">
 <g fill-rule="evenodd">
  <path d="m50.57 22.016-6.2109 77.984h12.426z"/>
  <path d="m30.555 39.523c-5.0352 2.1406-8.4961 6.543-8.4961 11.633 0 7.1836 6.8867 13.008 15.379 13.008 3.4766 0 6.6797-0.97266 9.2539-2.6172l3.207-40.254h1.3398l3.0156 37.852c2.3438 0.99219 4.9922 1.5508 7.793 1.5508 9.6289 0 17.43-6.5977 17.43-14.738 0-5.8398-4.0156-10.887-9.8438-13.273 2.0234-3.1406 3.1797-6.7422 3.1797-10.57 0-12.215-11.703-22.113-26.148-22.113-14.441 0-26.148 9.8984-26.148 22.113 0 7.0703 3.9258 13.367 10.035 17.414z"/>
 </g>
</svg>
